<?xml version="1.0" encoding="utf-8"?>
<!-- Generator: Adobe Illustrator 23.1.0, SVG Export Plug-In . SVG Version: 6.00 Build 0)  -->
<svg version="1.1" id="Capa_1" xmlns="http://www.w3.org/2000/svg" xmlns:xlink="http://www.w3.org/1999/xlink" x="0px" y="0px"
	 viewBox="0 0 1200 1200" enable-background="new 0 0 1200 1200" xml:space="preserve">
<g>
	<g>
		<path fill="#A86D14" d="M600,50C296.729,50,50,296.729,50,600c0,303.272,246.729,550,550,550c303.272,0,550-246.728,550-550
			C1150,296.729,903.272,50,600,50z"/>
	</g>
	<path fill="#FFC21C" d="M569.517,612.607v220.238c12.112,2.182,24.564,3.346,37.333,3.346c8.155,0,16.023-0.471,23.634-1.33
		V632.518c-11.025-3.944-22.526-7.614-34.465-10.961C587.05,618.718,578.22,615.713,569.517,612.607z"/>
	<path fill="#FFC21C" d="M665.514,646.764c-0.336-0.155-0.684-0.304-1.021-0.458v181.284c20.21-6.693,41.014-19.44,54.252-36.287
		c23.986-30.525,22.983-78.929-2.731-108.282C703.444,668.671,686.453,656.473,665.514,646.764z"/>
	<path fill="#FFE692" d="M630.614,585.396c-0.917-70.118-0.13-140.29-0.13-210.415c-6.039-0.584-12.145-0.893-18.305-0.893
		c-15.1,0-29.368,1.5-42.661,4.459v185.269C569.517,569.02,624.406,583.792,630.614,585.396z"/>
	<path fill="#FFE692" d="M535.508,547.807V390.466c-47.462,23.898-71.014,88.88-32.092,131.87
		C512.13,531.96,522.906,540.471,535.508,547.807z"/>
	<path fill="#FFE692" d="M600,101.014c-214.494,0-397.799,136.046-468.194,326.374c17.484,6.781,34.942,13.598,52.383,20.438
		c38.146-104.852,114.526-192.394,214.6-244.216c19.758-10.215,34.938,20.191,15.637,30.201
		c-92.731,48.022-163.431,129.23-198.571,226.467c88.871,35.056,177.272,70.755,265.569,106.585
		c-27.548-24.54-40.086-59.625-40.087-96.448c0-58.337,40.726-105.851,94.17-125.031c0.001,0,0.001-61.431,0.001-61.434
		c0-22.099,34.002-21.935,34.009-0.006c0,0.006,0,52.632,0,52.635c0-2.274,60.775-5.501,60.966-2.811
		c0.001-0.015,0.001-49.818,0.001-49.818c0-21.954,34.009-22.091,34.009,0.001c0,0.261,0,54.623,0,54.623
		c37.162,7.921,72.372,26.118,98.502,54.009c9.472,10.111,15.453,22.92,4.517,34.409c-6.655,6.99-20.66,11.008-27.534,2.542
		c-8.727-10.749-19.874-20.464-33.138-28.881c-12.763-8.098-27.01-14.488-42.347-19.052v215.284
		c23.056,8.415,46.746,19.329,66.398,34.163c18.552,14.003,31.242,32.238,39.085,52.635c46.139,18.501,92.363,36.88,138.721,55.071
		c0.435-0.028,0.865-0.065,1.319-0.065c0.493,0,83.147,0,83.147,0c3.217,0,12.497-42.141,13.16-45.168
		c-31.855,1.58-64.32,0.188-96.309,0.188c-22.111,0-21.838-34.009,0.002-34.009c0.444,0,102.769,0,102.769,0
		c2.209-15.017,3.564-30.054,4.115-45.059c-0.516,0.047-106.885,0.079-106.885,0.079c-22.143,0-21.773-34.009,0.002-34.009
		c0.617,0,106.267,0.033,106.735,0.072c-0.697-15.11-2.232-30.145-4.601-45.051H910.014c-22.179,0-21.531-34.009,0.001-34.009
		c0.464,0,95.22,0,95.22,0c-3.767-15.199-8.408-30.213-13.935-44.98h-81.287c-22.454,0-21.461-34.009,0-34.009
		c0.185,0,66.789,0,66.789,0c-6.35-13.232-13.415-26.222-21.233-38.905c-11.597-18.808,17.43-36.507,28.949-17.847
		c63.944,103.739,82.72,225.906,52.875,344.014c-6.066,24.006-14.005,47.223-23.694,69.515
		c14.943,5.728,29.901,11.434,44.882,17.109c25.982-60.367,40.404-126.836,40.404-196.618
		C1098.986,324.859,875.142,101.014,600,101.014z M904.148,309.08c-4.094,0.349-8.311-0.883-11.873-4.36
		c-12.296-11.999-25.461-23.327-39.133-33.669c-17.627-13.339,3.023-40.36,20.531-27.114c14.803,11.2,29.058,23.466,42.368,36.456
		C928.056,292.123,916.676,308.011,904.148,309.08z"/>
	<path fill="#FFC21C" d="M887.87,945.795c-16.933,13.881-38.205-12.645-21.569-26.296c48.971-40.181,87.26-90.128,113.125-146.801
		h-69.412c-21.602,0-21.953-32.598-1.317-33.945c-46.357-18.191-92.582-36.569-138.721-55.071
		c6.833,17.776,9.998,37.188,9.998,56.944c0,52.764-35.258,95.775-81.477,117.748c-10.503,4.991-21.89,8.944-34.005,11.964v45.712
		c0,22.084-34.009,21.516-34.009,0c0-0.12,0-40.023,0-40.023c-6.948,0.646-14.049,1.08-21.374,1.189
		c-13.825,0.175-27.023-0.522-39.592-2.032v40.867c0,22.131-34.009,21.711-34.009-0.001c0-0.292,0-47.481,0-47.481
		c-40.628-11.149-77.1-36.137-106.92-65.38c-9.531-9.485-11.739-22.68-1.859-33.066c8.208-8.629,22.008-8.909,30.278-0.003
		c19.889,21.416,42.766,37.956,67.991,49.159c3.458,1.537,6.967,2.948,10.51,4.277v-224.03
		c-18.39-7.686-34.831-17.183-48.859-28.257c-1.803-1.424-3.535-2.899-5.225-4.404c-88.297-35.831-176.698-71.529-265.569-106.585
		c-4.615,12.77-8.643,25.804-12,39.089c-11.244,44.491-15.04,90.013-11.285,135.301c1.819,21.932-32.085,24.628-33.894,2.8
		c-4.064-49.034,0.044-98.3,12.205-146.433c3.712-14.69,8.175-29.101,13.308-43.208c-17.441-6.839-34.899-13.657-52.383-20.438
		C111.903,481.203,101.014,539.352,101.014,600c0,275.141,223.845,498.986,498.986,498.986
		c205.359,0,382.12-124.713,458.582-302.368c-14.98-5.675-29.939-11.381-44.882-17.109
		C985.711,843.914,943.013,900.552,887.87,945.795z M247.469,869.77c-5.707-7.57-11.254-15.436-16.489-23.383
		c-12.28-18.648,16.475-36.789,28.402-18.71c4.848,7.358,9.975,14.631,15.249,21.624C288.01,867.057,260.356,886.865,247.469,869.77
		z M494.669,1033.774c-69.779-17.633-134.829-52.132-188.128-99.775c-16.241-14.521,6.747-39.587,22.663-25.358
		c49.225,44.001,109.318,75.866,173.786,92.156C523.881,1006.082,515.774,1039.067,494.669,1033.774z"/>
</g>
</svg>
